<?xml version="1.0" encoding="utf-8"?>
<!-- Generator: Adobe Illustrator 21.0.2, SVG Export Plug-In . SVG Version: 6.00 Build 0)  -->
<svg version="1.1" id="Calque_1" xmlns="http://www.w3.org/2000/svg" xmlns:xlink="http://www.w3.org/1999/xlink" x="0px" y="0px"
	 viewBox="0 0 82 47.1" style="enable-background:new 0 0 82 47.1;" xml:space="preserve">
<style type="text/css">
	.st0{fill:#302E40;}
	.st1{fill:#FF0B7A;}
	.st2{fill:#394CFF;}
	.st3{fill:#FFB000;}
</style>
<g>
	<path class="st0" d="M52.2,21.1c0,0.4-0.3,0.7-0.7,0.7c-0.7,0-1.2-0.7-2.8-0.7c-2,0-3.3,1.5-3.3,3.5c0,1.9,1.3,3.5,3.3,3.5
		c1.6,0,2.1-0.7,2.8-0.7c0.4,0,0.7,0.3,0.7,0.7c0,0.9-1.6,1.6-3.4,1.6c-3.2,0-5.2-2.3-5.2-5.2c0-2.9,2.1-5.2,5.3-5.2
		C50.6,19.4,52.2,20.2,52.2,21.1z"/>
	<path class="st0" d="M59.4,19.4c2.8,0,5,2.3,5,5.2c0,2.9-2.2,5.2-5,5.2c-2.8,0-5-2.3-5-5.2C54.3,21.7,56.5,19.4,59.4,19.4z
		 M59.4,21.1c-1.9,0-3.2,1.5-3.2,3.5c0,1.9,1.4,3.5,3.2,3.5c1.9,0,3.2-1.6,3.2-3.5C62.6,22.7,61.3,21.1,59.4,21.1z"/>
	<path class="st0" d="M76.5,16.3v12.4c0,0.5-0.4,0.9-0.9,0.9c-0.5,0-0.9-0.4-0.9-0.9V28c-0.8,1.1-2,1.8-3.5,1.8
		c-2.7,0-4.8-2.2-4.8-5.2c0-2.9,2-5.2,4.8-5.2c1.5,0,2.7,0.7,3.5,1.7v-4.9c0-0.5,0.4-0.9,0.9-0.9C76.1,15.3,76.5,15.7,76.5,16.3z
		 M74.6,24.6c0-1.9-1.3-3.5-3.2-3.5c-1.9,0-3.2,1.5-3.2,3.5c0,1.9,1.4,3.5,3.2,3.5C73.3,28.1,74.6,26.5,74.6,24.6z"/>
	<path class="st0" d="M82,16.8c0,0.6-0.5,1.1-1.1,1.1c-0.6,0-1.1-0.5-1.1-1.1c0-0.6,0.5-1.1,1.1-1.1C81.5,15.7,82,16.2,82,16.8z
		 M80.9,29.6c-0.6,0-0.9-0.4-0.9-0.9v-8.1c0-0.5,0.4-0.9,0.9-0.9s0.9,0.4,0.9,0.9v8.1C81.8,29.2,81.4,29.6,80.9,29.6z"/>
</g>
<g>
	<g>
		<path class="st1" d="M12.2,25.2H3.5c-0.4,0-0.8-0.4-0.8-0.8s0.4-0.8,0.8-0.8h8.7c0.4,0,0.8,0.4,0.8,0.8S12.6,25.2,12.2,25.2z"/>
	</g>
	<g>
		<path class="st2" d="M24.5,12.9c-0.4,0-0.8-0.4-0.8-0.8V3.3c0-0.4,0.4-0.8,0.8-0.8s0.8,0.4,0.8,0.8v8.9
			C25.2,12.6,24.9,12.9,24.5,12.9z"/>
	</g>
	<g>
		<path class="st2" d="M24.5,44.1c-0.4,0-0.8-0.4-0.8-0.8v-6.5c0-0.4,0.4-0.8,0.8-0.8s0.8,0.4,0.8,0.8v6.5
			C25.2,43.7,24.9,44.1,24.5,44.1z"/>
	</g>
	<g>
		<path class="st1" d="M10.4,39.3c-0.2,0-0.4-0.1-0.6-0.2c-0.3-0.3-0.3-0.8,0-1.1l5.3-5.3c0.3-0.3,0.8-0.3,1.1,0
			c0.3,0.3,0.3,0.8,0,1.1L11,39C10.8,39.2,10.6,39.3,10.4,39.3z"/>
	</g>
	<g>
		<path class="st1" d="M33.2,16.5c-0.2,0-0.4-0.1-0.6-0.2c-0.3-0.3-0.3-0.8,0-1.1l5.2-5.2c0.3-0.3,0.8-0.3,1.1,0
			c0.3,0.3,0.3,0.8,0,1.1l-5.2,5.2C33.6,16.5,33.4,16.5,33.2,16.5z"/>
	</g>
	<g>
		<path class="st1" d="M38.1,38.9c-0.2,0-0.4-0.1-0.6-0.2l-5-5c-0.3-0.3-0.3-0.8,0-1.1c0.3-0.3,0.8-0.3,1.1,0l5,5
			c0.3,0.3,0.3,0.8,0,1.1C38.5,38.9,38.3,38.9,38.1,38.9z"/>
	</g>
	<g>
		<path class="st1" d="M11,11.8c-0.2,0-0.4-0.1-0.6-0.2L9,10.2C8.7,9.9,8.7,9.4,9,9c0.3-0.3,0.8-0.3,1.1,0l1.4,1.4
			c0.3,0.3,0.3,0.8,0,1.1C11.4,11.7,11.2,11.8,11,11.8z"/>
	</g>
	<g>
		<path class="st3" d="M15.8,16.5c-0.2,0-0.4-0.1-0.6-0.2l-2.6-2.6c-0.3-0.3-0.3-0.8,0-1.1c0.3-0.3,0.8-0.3,1.1,0l2.6,2.6
			c0.3,0.3,0.3,0.8,0,1.1C16.2,16.5,16,16.5,15.8,16.5z"/>
	</g>
	<g>
		<path class="st1" d="M4.8,33.4c-0.3,0-0.6-0.2-0.7-0.5c-0.2-0.4,0-0.9,0.4-1l8.3-3.4c0.4-0.2,0.9,0,1,0.4c0.2,0.4,0,0.9-0.4,1
			l-8.3,3.4C5,33.4,4.9,33.4,4.8,33.4z"/>
	</g>
	<g>
		<path class="st1" d="M19.7,13.9c-0.3,0-0.6-0.2-0.7-0.5l-1.3-3.2c-0.2-0.4,0-0.9,0.4-1c0.4-0.2,0.9,0,1,0.4l1.3,3.2
			c0.2,0.4,0,0.9-0.4,1C19.9,13.9,19.8,13.9,19.7,13.9z"/>
	</g>
	<g>
		<path class="st3" d="M17.3,7.9c-0.3,0-0.6-0.2-0.7-0.5l-1-2.3c-0.2-0.4,0-0.9,0.4-1c0.4-0.2,0.9,0,1,0.4l1,2.3
			c0.2,0.4,0,0.9-0.4,1C17.5,7.9,17.4,7.9,17.3,7.9z"/>
	</g>
	<g>
		<path class="st2" d="M31.8,42.9c-0.3,0-0.6-0.2-0.7-0.5l-2.6-6.3c-0.2-0.4,0-0.9,0.4-1c0.4-0.2,0.9,0,1,0.4l2.6,6.3
			c0.2,0.4,0,0.9-0.4,1C32,42.9,31.9,42.9,31.8,42.9z"/>
	</g>
	<g>
		<path class="st1" d="M29.2,13.9c-0.1,0-0.2,0-0.3-0.1c-0.4-0.2-0.6-0.6-0.4-1l3.3-8c0.2-0.4,0.6-0.6,1-0.4c0.4,0.2,0.6,0.6,0.4,1
			l-3.3,8C29.8,13.7,29.5,13.9,29.2,13.9z"/>
	</g>
	<g>
		<path class="st3" d="M17.4,42.2c-0.1,0-0.2,0-0.3-0.1c-0.4-0.2-0.6-0.6-0.4-1l2.3-5.6c0.2-0.4,0.6-0.6,1-0.4
			c0.4,0.2,0.6,0.6,0.4,1l-2.3,5.6C18,42,17.7,42.2,17.4,42.2z"/>
	</g>
	<g>
		<path class="st1" d="M13.1,20.5c-0.1,0-0.2,0-0.3-0.1l-8.1-3.4c-0.4-0.2-0.6-0.6-0.4-1c0.2-0.4,0.6-0.6,1-0.4l8.1,3.4
			c0.4,0.2,0.6,0.6,0.4,1C13.7,20.3,13.4,20.5,13.1,20.5z"/>
	</g>
	<g>
		<path class="st2" d="M6.4,28.8c-0.4,0-0.7-0.3-0.8-0.6c-0.1-0.4,0.2-0.8,0.6-0.9l6-1.2c0.4-0.1,0.8,0.2,0.9,0.6
			c0.1,0.4-0.2,0.8-0.6,0.9l-6,1.2C6.5,28.8,6.4,28.8,6.4,28.8z"/>
	</g>
	<g>
		<path class="st3" d="M0.8,29.9c-0.4,0-0.7-0.3-0.8-0.6c-0.1-0.4,0.2-0.8,0.6-0.9l2.7-0.5c0.4-0.1,0.8,0.2,0.9,0.6
			c0.1,0.4-0.2,0.8-0.6,0.9l-2.7,0.5C0.9,29.9,0.8,29.9,0.8,29.9z"/>
	</g>
	<g>
		<path class="st1" d="M27.4,40.2c-0.4,0-0.7-0.3-0.8-0.6l-0.6-2.9c-0.1-0.4,0.2-0.8,0.6-0.9c0.4-0.1,0.8,0.2,0.9,0.6l0.6,2.9
			c0.1,0.4-0.2,0.8-0.6,0.9C27.5,40.2,27.5,40.2,27.4,40.2z"/>
	</g>
	<g>
		<path class="st3" d="M28.8,47.1c-0.4,0-0.7-0.3-0.8-0.6l-0.9-4.4c-0.1-0.4,0.2-0.8,0.6-0.9c0.4-0.1,0.8,0.2,0.9,0.6l0.9,4.4
			c0.1,0.4-0.2,0.8-0.6,0.9C28.9,47.1,28.9,47.1,28.8,47.1z"/>
	</g>
	<g>
		<path class="st3" d="M22.1,13.2c-0.4,0-0.7-0.3-0.8-0.6l-0.5-2.5c-0.1-0.4,0.2-0.8,0.6-0.9c0.4-0.1,0.8,0.2,0.9,0.6l0.5,2.5
			c0.1,0.4-0.2,0.8-0.6,0.9C22.2,13.2,22.1,13.2,22.1,13.2z"/>
	</g>
	<g>
		<path class="st1" d="M21,7.9c-0.4,0-0.7-0.3-0.8-0.6L19,0.9c-0.1-0.4,0.2-0.8,0.6-0.9c0.4-0.1,0.8,0.2,0.9,0.6L21.8,7
			c0.1,0.4-0.2,0.8-0.6,0.9C21.1,7.9,21.1,7.9,21,7.9z"/>
	</g>
	<g>
		<path class="st3" d="M31.3,15c-0.1,0-0.3,0-0.4-0.1c-0.4-0.2-0.5-0.7-0.2-1.1l2.1-3.1c0.2-0.4,0.7-0.5,1.1-0.2
			c0.4,0.2,0.5,0.7,0.2,1.1l-2.1,3.1C31.8,14.9,31.5,15,31.3,15z"/>
	</g>
	<g>
		<path class="st2" d="M35,9.5c-0.1,0-0.3,0-0.4-0.1c-0.4-0.2-0.5-0.7-0.2-1.1l2.6-3.9C37.2,4,37.7,3.9,38,4.1
			c0.4,0.2,0.5,0.7,0.2,1.1l-2.6,3.9C35.5,9.4,35.2,9.5,35,9.5z"/>
	</g>
	<g>
		<path class="st3" d="M11.9,44.1c-0.1,0-0.3,0-0.4-0.1c-0.4-0.2-0.5-0.7-0.2-1.1l2.3-3.4c0.2-0.4,0.7-0.5,1.1-0.2
			c0.4,0.2,0.5,0.7,0.2,1.1l-2.3,3.4C12.4,44,12.1,44.1,11.9,44.1z"/>
	</g>
	<g>
		<path class="st2" d="M15.8,38.3c-0.1,0-0.3,0-0.4-0.1c-0.4-0.2-0.5-0.7-0.2-1.1l1.9-2.8c0.2-0.4,0.7-0.5,1.1-0.2
			c0.4,0.2,0.5,0.7,0.2,1.1l-1.9,2.8C16.3,38.1,16,38.3,15.8,38.3z"/>
	</g>
	<g>
		<path class="st2" d="M14.2,18.4c-0.1,0-0.3,0-0.4-0.1l-2-1.4c-0.4-0.2-0.5-0.7-0.2-1.1c0.2-0.4,0.7-0.5,1.1-0.2l2,1.4
			c0.4,0.2,0.5,0.7,0.2,1.1C14.7,18.3,14.5,18.4,14.2,18.4z"/>
	</g>
	<g>
		<path class="st3" d="M9.9,15.5c-0.1,0-0.3,0-0.4-0.1l-6.1-4.1c-0.4-0.2-0.5-0.7-0.2-1.1C3.5,9.9,3.9,9.8,4.3,10l6.1,4.1
			c0.4,0.2,0.5,0.7,0.2,1.1C10.4,15.4,10.2,15.5,9.9,15.5z"/>
	</g>
	<g>
		<path class="st2" d="M6.2,37.5c-0.3,0-0.5-0.1-0.7-0.3c-0.2-0.4-0.1-0.8,0.2-1.1l3.9-2.6c0.4-0.2,0.8-0.1,1.1,0.2
			c0.2,0.4,0.1,0.8-0.2,1.1l-3.9,2.6C6.5,37.4,6.3,37.5,6.2,37.5z"/>
	</g>
	<g>
		<path class="st3" d="M12.6,33.1c-0.3,0-0.5-0.1-0.7-0.3c-0.2-0.4-0.1-0.8,0.2-1.1l1.6-1.1c0.4-0.2,0.8-0.1,1.1,0.2
			c0.2,0.4,0.1,0.8-0.2,1.1L13.1,33C12.9,33.1,12.8,33.1,12.6,33.1z"/>
	</g>
	<g>
		<path class="st2" d="M17.6,15c-0.3,0-0.5-0.1-0.7-0.3l-6.3-9.4c-0.2-0.4-0.1-0.8,0.2-1.1C11.2,3.9,11.7,4,12,4.4l6.3,9.4
			c0.2,0.4,0.1,0.8-0.2,1.1C17.9,15,17.8,15,17.6,15z"/>
	</g>
	<g>
		<path class="st2" d="M36.5,43.3c-0.3,0-0.5-0.1-0.7-0.3l-2.5-3.7c-0.2-0.4-0.1-0.8,0.2-1.1c0.4-0.2,0.8-0.1,1.1,0.2l2.5,3.7
			c0.2,0.4,0.1,0.8-0.2,1.1C36.8,43.3,36.7,43.3,36.5,43.3z"/>
	</g>
	<g>
		<path class="st3" d="M32.4,37.2c-0.3,0-0.5-0.1-0.7-0.3l-1.1-1.7c-0.2-0.4-0.1-0.8,0.2-1.1c0.4-0.2,0.8-0.1,1.1,0.2l1.1,1.7
			c0.2,0.4,0.1,0.8-0.2,1.1C32.7,37.1,32.6,37.2,32.4,37.2z"/>
	</g>
	<g>
		<path class="st1" d="M20.4,45.4c-0.1,0-0.1,0-0.2,0c-0.4-0.1-0.7-0.5-0.6-0.9l1.6-8.1c0.1-0.4,0.5-0.7,0.9-0.6
			c0.4,0.1,0.7,0.5,0.6,0.9l-1.6,8.1C21.1,45.1,20.8,45.4,20.4,45.4z"/>
	</g>
	<g>
		<path class="st3" d="M26.9,13.2c-0.1,0-0.1,0-0.2,0c-0.4-0.1-0.7-0.5-0.6-0.9l2-10.1c0.1-0.4,0.5-0.7,0.9-0.6
			c0.4,0.1,0.7,0.5,0.6,0.9l-2,10.1C27.5,12.9,27.2,13.2,26.9,13.2z"/>
	</g>
	<g>
		<path class="st3" d="M12.4,22.8c-0.1,0-0.1,0-0.2,0L8,22c-0.4-0.1-0.7-0.5-0.6-0.9c0.1-0.4,0.5-0.7,0.9-0.6l4.3,0.8
			c0.4,0.1,0.7,0.5,0.6,0.9C13.1,22.6,12.8,22.8,12.4,22.8z"/>
	</g>
	<g>
		<path class="st2" d="M5.3,21.4c-0.1,0-0.1,0-0.2,0l-4.1-0.8c-0.4-0.1-0.7-0.5-0.6-0.9c0.1-0.4,0.5-0.7,0.9-0.6l4.1,0.8
			c0.4,0.1,0.7,0.5,0.6,0.9C6,21.2,5.7,21.4,5.3,21.4z"/>
	</g>
</g>
</svg>
