<svg width="135" height="14" viewBox="0 0 135 14" fill="none" xmlns="http://www.w3.org/2000/svg">
<rect width="135" height="14" fill="#1F2235"/>
<path d="M9.99 4.216C9.702 3.688 9.306 3.286 8.802 3.01C8.298 2.734 7.71 2.596 7.038 2.596C6.294 2.596 5.634 2.764 5.058 3.1C4.482 3.436 4.032 3.916 3.708 4.54C3.384 5.164 3.222 5.884 3.222 6.7C3.222 7.54 3.384 8.272 3.708 8.896C4.044 9.52 4.506 10 5.094 10.336C5.682 10.672 6.366 10.84 7.146 10.84C8.106 10.84 8.892 10.588 9.504 10.084C10.116 9.568 10.518 8.854 10.71 7.942H6.39V6.016H13.194V8.212C13.026 9.088 12.666 9.898 12.114 10.642C11.562 11.386 10.848 11.986 9.972 12.442C9.108 12.886 8.136 13.108 7.056 13.108C5.844 13.108 4.746 12.838 3.762 12.298C2.79 11.746 2.022 10.984 1.458 10.012C0.906 9.04 0.63 7.936 0.63 6.7C0.63 5.464 0.906 4.36 1.458 3.388C2.022 2.404 2.79 1.642 3.762 1.102C4.746 0.55 5.838 0.274 7.038 0.274C8.454 0.274 9.684 0.622 10.728 1.318C11.772 2.002 12.492 2.968 12.888 4.216H9.99ZM24.5624 10.606H19.5584L18.7304 13H16.0844L20.6024 0.417999H23.5364L28.0544 13H25.3904L24.5624 10.606ZM23.8784 8.59L22.0604 3.334L20.2424 8.59H23.8784ZM38.6712 6.556C39.3792 6.688 39.9612 7.042 40.4172 7.618C40.8732 8.194 41.1012 8.854 41.1012 9.598C41.1012 10.27 40.9332 10.864 40.5972 11.38C40.2732 11.884 39.7992 12.28 39.1752 12.568C38.5512 12.856 37.8132 13 36.9612 13H31.5432V0.436H36.7272C37.5792 0.436 38.3112 0.574 38.9232 0.85C39.5472 1.126 40.0152 1.51 40.3272 2.002C40.6512 2.494 40.8132 3.052 40.8132 3.676C40.8132 4.408 40.6152 5.02 40.2192 5.512C39.8352 6.004 39.3192 6.352 38.6712 6.556ZM34.0632 5.62H36.3672C36.9672 5.62 37.4292 5.488 37.7532 5.224C38.0772 4.948 38.2392 4.558 38.2392 4.054C38.2392 3.55 38.0772 3.16 37.7532 2.884C37.4292 2.608 36.9672 2.47 36.3672 2.47H34.0632V5.62ZM36.6012 10.948C37.2132 10.948 37.6872 10.804 38.0232 10.516C38.3712 10.228 38.5452 9.82 38.5452 9.292C38.5452 8.752 38.3652 8.332 38.0052 8.032C37.6452 7.72 37.1592 7.564 36.5472 7.564H34.0632V10.948H36.6012ZM54.8996 0.436L50.6516 8.626V13H48.1316V8.626L43.8656 0.436H46.7096L49.4096 6.178L52.0916 0.436H54.8996ZM71.7207 13L67.1487 7.402V13H64.6287V0.436H67.1487V6.07L71.7207 0.436H74.7627L69.5787 6.664L74.9067 13H71.7207ZM86.0683 10.606H81.0643L80.2363 13H77.5903L82.1083 0.417999H85.0423L89.5603 13H86.8963L86.0683 10.606ZM85.3843 8.59L83.5663 3.334L81.7483 8.59H85.3843ZM99.529 13L96.757 8.104H95.569V13H93.049V0.436H97.765C98.737 0.436 99.565 0.61 100.249 0.957999C100.933 1.294 101.443 1.756 101.779 2.344C102.127 2.92 102.301 3.568 102.301 4.288C102.301 5.116 102.061 5.866 101.581 6.538C101.101 7.198 100.387 7.654 99.439 7.906L102.445 13H99.529ZM95.569 6.214H97.675C98.359 6.214 98.869 6.052 99.205 5.728C99.541 5.392 99.709 4.93 99.709 4.342C99.709 3.766 99.541 3.322 99.205 3.01C98.869 2.686 98.359 2.524 97.675 2.524H95.569V6.214ZM114.084 10.606H109.08L108.252 13H105.606L110.124 0.417999H113.058L117.576 13H114.912L114.084 10.606ZM113.4 8.59L111.582 3.334L109.764 8.59H113.4ZM134.763 0.436V13H132.243V4.828L128.877 13H126.969L123.585 4.828V13H121.065V0.436H123.927L127.923 9.778L131.919 0.436H134.763Z" fill="white"/>
<path d="M59.2689 13.126C58.8129 13.126 58.4349 12.988 58.1349 12.712C57.8469 12.424 57.7029 12.07 57.7029 11.65C57.7029 11.23 57.8469 10.882 58.1349 10.606C58.4349 10.318 58.8129 10.174 59.2689 10.174C59.7129 10.174 60.0789 10.318 60.3669 10.606C60.6549 10.882 60.7989 11.23 60.7989 11.65C60.7989 12.07 60.6549 12.424 60.3669 12.712C60.0789 12.988 59.7129 13.126 59.2689 13.126Z" fill="#EA4654"/>
</svg>
